
<svg xmlns="http://www.w3.org/2000/svg" style="display: none;">
<symbol id="icon-helmet">
  <g>
    <path d="m257.764,224.086c-0.888-4.686-3.166-8.996-6.538-12.368l-26.112-26.112c2.88,22.33 9.967,56.375 14.155,75.647l20.943,3.967c1.249,0.237 2.535-0.16 3.434-1.059 0.899-0.899 1.296-2.185 1.059-3.434l-6.941-36.641z" fill="#6fbef3"/>
    <path d="m79.188,119.725l12.324,12.324c4.522-5.186 9.638-9.59 16.036-13.38l-13.652-13.652-14.708,14.708z" fill="#6fbef3"/>
    <path d="m48.13,129.57l80.926-80.926c5.2-5.2 5.2-13.631 0-18.83l-7.723-7.722c-6.514-6.514-17.558-4.607-21.477,3.777l-15.917,34.048c-13.684-13.683-10.738-10.738-24.622-24.622 1.525-9.186-1.247-18.946-8.334-26.033-11.663-11.663-30.573-11.663-42.236,0-11.663,11.663-11.663,30.572 0,42.236 7.086,7.086 16.847,9.859 26.032,8.334 13.886,13.884 10.939,10.938 24.623,24.622l-34.049,15.916c-8.369,3.912-10.294,14.96-3.777,21.478l7.722,7.722c5.201,5.2 13.632,5.2 18.832-2.84217e-14z" fill="#6fbef3"/>
    <path d="m44.546,211.717c-3.373,3.372-5.651,7.682-6.539,12.368l-6.94,36.641c-0.237,1.249 0.16,2.535 1.059,3.434 0.899,0.899 2.184,1.295 3.434,1.059l20.943-3.967c4.188-19.272 11.276-53.317 14.155-75.647l-26.112,26.112z" fill="#6fbef3"/>
    <path d="m204.26,132.049l12.324-12.324-14.708-14.708-13.652,13.652c6.39,3.786 11.508,8.188 16.036,13.38z" fill="#6fbef3"/>
    <path d="m147.886,108.378l-28.675-28.675-14.708,14.707 17.768,17.768c7.738-2.38 16.223-3.589 25.42-3.606 0.066,0 0.129-0.004 0.195-0.004 9.273,0 17.822,1.212 25.615,3.61l17.768-17.768-14.708-14.708-28.675,28.676z" fill="#6fbef3"/>
    <path d="m260.992,59.832c9.186,1.525 18.946-1.248 26.033-8.334 11.663-11.663 11.663-30.573 0-42.236s-30.572-11.663-42.235,0c-7.086,7.086-9.859,16.847-8.334,26.032-13.883,13.883-10.894,10.894-24.623,24.623l-15.916-34.049c-3.924-8.395-14.971-10.283-21.477-3.777l-7.722,7.722c-5.2,5.2-5.2,13.63 0,18.83l80.926,80.926c5.2,5.2 13.63,5.2 18.83,0l7.723-7.722c6.519-6.52 4.59-17.566-3.777-21.478l-34.049-15.916c13.682-13.683 10.736-10.737 24.621-24.621z" fill="#6fbef3"/>
    <path d="m147.886,123.569c-34.308,0-56.898,19.425-62.119,62.119-3.287,26.878-12.937,71.378-16.525,87.49-0.767,3.442 1.19,6.912 4.535,8.028l41.063,13.696c2.027,0.676 4.252,0.373 6.025-0.82 1.772-1.193 2.891-3.141 3.027-5.273l3.507-54.728c0.18-2.803-1.361-5.434-3.893-6.649l-19.598-9.406c-6.607-3.171-9.393-11.097-6.222-17.704 3.169-6.603 11.098-9.392 17.704-6.222l29.517,14.166c1.884,0.904 4.076,0.904 5.96,0l29.516-14.166c6.603-3.169 14.534-0.385 17.704,6.222 3.171,6.607 0.385,14.534-6.222,17.704l-19.598,9.406c-2.532,1.215-4.073,3.846-3.893,6.649l3.507,54.728c0.137,2.132 1.255,4.08 3.027,5.273 1.772,1.193 3.998,1.496 6.025,0.82l41.063-13.696c3.352-1.118 5.303-4.579 4.535-8.028-3.588-16.113-13.238-60.612-16.525-87.49-5.222-42.694-27.813-62.119-62.12-62.119z" fill="#6fbef3"/>
  </g>
  </symbol>

<symbol id="icon-note">
<g>
	<g>
		<path d="M389.688,30.963h-72.885v14.771h72.885c5.591,0.001,10.14,4.549,10.14,10.141c0,1.626-0.374,3.178-1.112,4.612    l13.135,6.755c1.797-3.494,2.747-7.425,2.747-11.367C414.599,42.138,403.424,30.963,389.688,30.963z" fill="#6fbef3"/>
	</g>
</g>
<g>
	<g>
		<rect x="277.145" y="30.964" width="18.351" height="14.771" fill="#6fbef3"/>
	</g>
</g>
<g>
	<g>
		<rect x="91.695" y="163.135" width="260.956" height="14.771" fill="#6fbef3"/>
	</g>
</g>
<g>
	<g>
		<rect x="91.695" y="432.382" width="260.956" height="14.771" fill="#6fbef3"/>
	</g>
</g>
<g>
	<g>
		<polygon points="439.419,167.922 428.974,178.366 438.158,187.551 407.829,217.88 418.273,228.325 459.047,187.551   " fill="#6fbef3"/>
	</g>
</g>
<g>
	<g>
		
			<rect x="391.939" y="229.886" transform="matrix(0.7071 -0.7071 0.7071 0.7071 -50.9428 351.556)" width="13.914" height="14.77" fill="#6fbef3"/>
	</g>
</g>
<g>
	<g>
		<path d="M500.074,124.633l-5.464-5.464c-15.873-15.874-41.704-15.874-57.578,0l-5.341,5.341l-10.445,10.444l-27.072,27.072    v-56.217c25.554-2.279,45.658-23.797,45.658-49.934c0-27.65-22.496-50.146-50.145-50.146H50.145C22.496,5.729,0,28.224,0,55.874    v399.255h42.76v51.141h351.416v-218.16l90.113-90.113l7.892-7.893l2.551-2.551l5.341-5.341c7.69-7.69,11.925-17.913,11.925-28.788    S507.765,132.322,500.074,124.633z M85.65,20.5h304.038c19.506,0,35.374,15.869,35.374,35.375s-15.869,35.374-35.374,35.374H85.65    c9.042-9.075,14.641-21.583,14.641-35.374C100.291,42.082,94.693,29.575,85.65,20.5z M42.76,91.248L42.76,91.248v349.11H14.771    V55.874c0-19.506,15.87-35.375,35.375-35.375c19.505,0,35.374,15.87,35.374,35.375c0,19.506-15.87,35.374-35.374,35.374H42.76z     M379.406,491.499L379.406,491.499H57.53V106.02h321.875v70.776l-32.022,32.021H91.692v14.771h240.922l-30.915,30.915H91.692    v14.771h195.237l-30.914,30.914H91.692v14.771h149.553l-2.577,2.577l-8.401,28.338H91.692v14.771h134.197l-9.165,30.915H91.692    v14.771h260.953v-14.771h-87.977l37.042-10.98l19.933-19.933h31.001v-14.771h-16.23l42.992-42.992V491.499z M248.768,335.428    l35.047,35.047l-49.813,14.767L248.768,335.428z M297.812,363.584l-42.153-42.153l176.032-176.032l42.153,42.153L297.812,363.584z     M489.631,171.766l-5.341,5.341l-42.153-42.153l5.341-5.341c10.115-10.115,26.573-10.115,36.689,0l5.464,5.464    c4.9,4.9,7.599,11.415,7.599,18.344C497.229,160.351,494.53,166.866,489.631,171.766z" fill="#6fbef3"/>
	</g>
</g>
<g>
</g>
<g>
</g>
<g>
</g>
<g>
</g>
<g>
</g>
<g>
</g>
<g>
</g>
<g>
</g>
<g>
</g>
<g>
</g>
<g>
</g>
<g>
</g>
<g>
</g>
<g>
</g>
<g>
</g>
</symbol>

</svg>
