<svg xmlns="http://www.w3.org/2000/svg" style="display: none;"><symbol id="roman-coliseum" viewBox="0 0 45 45"><title>roman-coliseum</title><path d="M23.441,11.877l-4.71-8.16C18.58,3.454,18.3,3.306,17.985,3.312C9.688,3.746,0,5.609,0,9.43v26.024 c0,4.095,11.318,6.233,22.5,6.233c11.18,0,22.5-2.141,22.5-6.233V18.104C45,14.147,34.232,11.994,23.441,11.877z M1.626,9.43 c0-1.5,5.539-3.857,15.947-4.466l5.237,9.072c-0.104,0-0.206,0.003-0.311,0.003C9.757,14.039,1.626,11.31,1.626,9.43z M6.945,39.191c0,0.042-0.019,0.08-0.052,0.104c-0.024,0.02-0.053,0.029-0.083,0.029c-0.012,0-0.023-0.002-0.035-0.005 c-1.303-0.344-2.416-0.722-3.307-1.12c-0.048-0.021-0.08-0.07-0.08-0.126v-4.696c0-0.016,0.001-0.026,0.005-0.038 c0.004-0.014,0.342-1.137,1.774-1.137c1.431,0,1.77,1.123,1.773,1.139c0.003,0.01,0.005,0.021,0.005,0.036V39.191z M6.945,30.515 c0,0.043-0.019,0.081-0.052,0.106c-0.024,0.02-0.054,0.027-0.083,0.027c-0.012,0-0.023-0.002-0.035-0.004 c-1.303-0.342-2.416-0.719-3.307-1.119c-0.048-0.022-0.08-0.072-0.08-0.125v-4.699c0-0.013,0.001-0.022,0.005-0.038 c0.004-0.011,0.342-1.136,1.774-1.136c1.431,0,1.77,1.125,1.773,1.139c0.003,0.013,0.005,0.022,0.005,0.035V30.515z M6.945,21.841 c0,0.042-0.019,0.082-0.052,0.107c-0.024,0.019-0.053,0.028-0.083,0.028c-0.012,0-0.023-0.001-0.035-0.004 c-1.303-0.342-2.416-0.719-3.307-1.121c-0.048-0.021-0.08-0.069-0.08-0.124v-4.7c0-0.013,0.001-0.026,0.005-0.037 c0.004-0.012,0.342-1.136,1.774-1.136c1.431,0,1.77,1.125,1.773,1.136c0.003,0.011,0.005,0.024,0.005,0.037V21.841z M12.723,40.271c0,0.041-0.018,0.077-0.046,0.104c-0.024,0.021-0.057,0.033-0.089,0.033c-0.005,0-0.012,0-0.018,0 c-1.136-0.148-2.244-0.324-3.293-0.524c-0.064-0.015-0.11-0.068-0.11-0.134v-5.289c0-0.013,0.001-0.024,0.005-0.038 c0.004-0.011,0.34-1.137,1.772-1.137c1.432,0,1.771,1.126,1.773,1.139c0.003,0.012,0.005,0.023,0.005,0.036L12.723,40.271 L12.723,40.271z M12.723,31.599c0,0.04-0.018,0.076-0.046,0.102c-0.024,0.023-0.057,0.033-0.089,0.033c-0.005,0-0.012,0-0.018,0 c-1.136-0.146-2.244-0.322-3.293-0.523c-0.064-0.013-0.11-0.066-0.11-0.134v-5.288c0-0.016,0.001-0.025,0.005-0.037 c0.004-0.011,0.34-1.137,1.772-1.137c1.432,0,1.771,1.126,1.773,1.139c0.003,0.01,0.005,0.021,0.005,0.035L12.723,31.599 L12.723,31.599z M12.723,22.923c0,0.04-0.018,0.077-0.046,0.102c-0.024,0.022-0.057,0.033-0.089,0.033 c-0.005,0-0.012,0-0.018-0.001c-1.137-0.146-2.245-0.322-3.293-0.525c-0.064-0.012-0.11-0.068-0.11-0.133v-5.288 c0-0.013,0.001-0.024,0.005-0.037c0.004-0.011,0.34-1.135,1.772-1.135c1.432,0,1.771,1.125,1.773,1.136 c0.003,0.012,0.005,0.024,0.005,0.037L12.723,22.923L12.723,22.923z M18.501,40.775c0,0.037-0.016,0.074-0.042,0.101 c-0.025,0.021-0.059,0.035-0.093,0.035c-0.002,0-0.004,0-0.006,0c-1.063-0.051-2.14-0.127-3.292-0.231 c-0.07-0.008-0.124-0.063-0.124-0.134v-4.998c0-0.014,0.001-0.026,0.005-0.038c0.004-0.01,0.341-1.136,1.771-1.136 c1.434,0,1.773,1.126,1.776,1.138c0.003,0.01,0.005,0.022,0.005,0.036V40.775L18.501,40.775z M18.501,32.099 c0,0.039-0.016,0.075-0.042,0.103c-0.025,0.021-0.059,0.035-0.093,0.035c-0.002,0-0.004,0-0.006,0 c-1.063-0.053-2.14-0.127-3.292-0.232c-0.07-0.007-0.124-0.063-0.124-0.134v-5c0-0.013,0.001-0.023,0.005-0.035 c0.004-0.015,0.341-1.137,1.771-1.137c1.434,0,1.773,1.122,1.776,1.139c0.003,0.01,0.005,0.021,0.005,0.033V32.099L18.501,32.099z M18.501,23.425c0,0.038-0.016,0.072-0.042,0.098c-0.025,0.025-0.059,0.038-0.093,0.038c-0.002,0-0.004,0-0.006,0 c-1.083-0.052-2.159-0.128-3.292-0.23c-0.07-0.007-0.124-0.064-0.124-0.136v-4.999c0-0.012,0.001-0.025,0.005-0.037 c0.004-0.011,0.341-1.135,1.771-1.135c1.434,0,1.773,1.125,1.776,1.136c0.003,0.012,0.005,0.025,0.005,0.037V23.425L18.501,23.425 z M24.277,40.855c0,0.073-0.06,0.133-0.134,0.137c-0.545,0.011-1.09,0.021-1.646,0.021c-0.556,0-1.101-0.011-1.646-0.021 c-0.073-0.004-0.133-0.062-0.133-0.137v-5.31c0-0.014,0.001-0.026,0.005-0.038c0.003-0.011,0.342-1.137,1.773-1.137 c1.434,0,1.771,1.126,1.775,1.139c0.002,0.01,0.004,0.022,0.004,0.036L24.277,40.855L24.277,40.855z M24.277,32.18 c0,0.075-0.06,0.134-0.134,0.136c-0.545,0.014-1.09,0.022-1.646,0.022c-0.556,0-1.101-0.011-1.646-0.022 c-0.073-0.002-0.133-0.061-0.133-0.136V26.87c0-0.013,0.001-0.023,0.005-0.035c0.003-0.015,0.342-1.137,1.773-1.137 c1.434,0,1.771,1.122,1.775,1.139c0.002,0.01,0.004,0.021,0.004,0.033L24.277,32.18L24.277,32.18z M24.277,23.506 c0,0.073-0.06,0.134-0.134,0.136c-0.545,0.01-1.09,0.021-1.646,0.021c-0.556,0-1.101-0.011-1.646-0.021 c-0.073-0.002-0.133-0.062-0.133-0.136v-5.312c0-0.012,0.001-0.025,0.005-0.037c0.003-0.011,0.342-1.135,1.773-1.135 c1.434,0,1.771,1.125,1.775,1.135c0.002,0.012,0.004,0.026,0.004,0.038L24.277,23.506L24.277,23.506z M30.055,40.544 c0,0.067-0.053,0.126-0.123,0.134c-1.159,0.104-2.235,0.183-3.291,0.231c-0.002,0-0.004,0-0.007,0 c-0.036,0-0.066-0.016-0.093-0.038c-0.027-0.025-0.042-0.062-0.042-0.098v-5.229c0-0.014,0.002-0.026,0.004-0.038 c0.004-0.011,0.341-1.137,1.772-1.137c1.431,0,1.771,1.126,1.773,1.139c0.002,0.01,0.005,0.022,0.005,0.036L30.055,40.544 L30.055,40.544z M30.055,31.87c0,0.069-0.053,0.127-0.123,0.134c-1.159,0.105-2.235,0.182-3.291,0.232c-0.002,0-0.004,0-0.007,0 c-0.036,0-0.066-0.016-0.093-0.037c-0.027-0.025-0.042-0.062-0.042-0.101V26.87c0-0.013,0.002-0.023,0.004-0.035 c0.004-0.015,0.341-1.137,1.772-1.137c1.431,0,1.771,1.122,1.773,1.139c0.002,0.01,0.005,0.021,0.005,0.033L30.055,31.87 L30.055,31.87z M35.833,39.75c0,0.063-0.047,0.12-0.108,0.135c-1.047,0.2-2.155,0.376-3.295,0.521 c-0.005,0.004-0.011,0.004-0.018,0.004c-0.032,0-0.064-0.015-0.089-0.034c-0.03-0.025-0.05-0.063-0.05-0.104V34.46 c0-0.013,0.002-0.024,0.009-0.038c0.003-0.011,0.34-1.137,1.771-1.137c1.433,0,1.771,1.126,1.771,1.139 c0.004,0.012,0.006,0.023,0.006,0.036L35.833,39.75L35.833,39.75z M35.833,31.076c0,0.063-0.047,0.12-0.108,0.134 c-1.047,0.201-2.155,0.378-3.295,0.521c-0.005,0.002-0.011,0.002-0.018,0.002c-0.032,0-0.064-0.012-0.089-0.033 c-0.03-0.023-0.05-0.062-0.05-0.102v-5.812c0-0.016,0.002-0.025,0.009-0.038c0.003-0.011,0.34-1.137,1.771-1.137 c1.433,0,1.771,1.126,1.771,1.14c0.004,0.01,0.006,0.021,0.006,0.035L35.833,31.076L35.833,31.076z M41.611,38.076 c0,0.056-0.032,0.104-0.08,0.126c-0.894,0.398-2.006,0.776-3.308,1.121c-0.011,0.002-0.022,0.004-0.032,0.004 c-0.031,0-0.061-0.012-0.084-0.029c-0.034-0.024-0.054-0.063-0.054-0.104V33.38c0-0.015,0.002-0.026,0.004-0.038 c0.004-0.014,0.343-1.136,1.771-1.136c1.437,0,1.771,1.122,1.776,1.138c0.004,0.01,0.006,0.021,0.006,0.036V38.076z M41.611,29.402c0,0.053-0.032,0.103-0.08,0.125c-0.894,0.4-2.006,0.777-3.308,1.119c-0.011,0.002-0.022,0.004-0.032,0.004 c-0.031,0-0.061-0.01-0.084-0.027c-0.034-0.025-0.054-0.063-0.054-0.106v-5.813c0-0.013,0.002-0.022,0.004-0.038 c0.004-0.011,0.343-1.136,1.771-1.136c1.437,0,1.771,1.125,1.776,1.139c0.004,0.013,0.006,0.022,0.006,0.035V29.402z M29.529,22.419l-4.615-7.99l-0.523-0.912c11.802,0.251,18.983,2.782,18.983,4.588C43.374,19.417,39.072,21.597,29.529,22.419z"/></symbol><symbol id="shield-5" viewBox="0 0 470.233 470.233"><title>shield-5</title><path d="M460.104,103.095c-0.867-0.867-3.508-3.506-13.777-3.506c-3.794,0-9.303,0.447-14.767,1.7l-5.165-5.165l12.613-12.613 c5.069-5.068,5.069-13.316,0-18.385L426.47,52.589c-2.449-2.449-5.714-3.799-9.192-3.799s-6.743,1.35-9.192,3.799l-12.613,12.613 l-5.134-5.134c2.704-11.332,2.219-24.518-1.838-28.574c-6.542-6.543-15.241-10.146-24.494-10.146 c-9.252,0-17.95,3.603-24.492,10.146c-6.543,6.542-10.146,15.241-10.146,24.493c0,9.253,3.604,17.952,10.146,24.494 c0.867,0.868,3.506,3.507,13.776,3.507h0.001c3.794,0,9.303-0.447,14.766-1.7l5.165,5.165l-47.56,47.56 c-1.984,0.141-4.006,0.22-6.071,0.22c-9.688,0-19.746-1.557-29.895-4.627c-22.837-6.907-42.113-33.47-48.446-42.197 c-1.177-1.622-3.222-2.591-5.47-2.591c-2.119,0-3.974,0.889-5.091,2.438c-6.308,8.75-25.502,35.377-48.558,42.351 c-10.147,3.069-20.369,4.626-30.382,4.627c-2.462,0-4.884-0.101-7.254-0.296L97.011,87.451l5.164-5.165 c5.464,1.253,10.974,1.7,14.769,1.7c10.269,0,12.909-2.639,13.776-3.507c13.506-13.506,13.506-35.481,0-48.986 c-6.542-6.543-15.241-10.146-24.494-10.146c-9.252,0-17.951,3.603-24.493,10.146c-4.057,4.057-4.542,17.243-1.838,28.575 l-5.133,5.134L62.148,52.589c-2.449-2.449-5.714-3.799-9.193-3.799c-3.479,0-6.743,1.35-9.192,3.798L31.224,65.127 c-5.068,5.069-5.068,13.316,0,18.385l12.614,12.614l-5.164,5.164c-5.464-1.252-10.974-1.699-14.768-1.699 c-10.271,0-12.91,2.639-13.778,3.507c-13.506,13.506-13.506,35.481,0,48.986c6.542,6.543,15.241,10.146,24.494,10.146 s17.951-3.604,24.493-10.146c4.057-4.057,4.542-17.243,1.838-28.575l5.133-5.134l40.029,40.029v121.986 c0,19.931,7.983,38.48,19.36,54.808L70.604,390.07c-3.497,3.497-7.958,9.706-10.157,14.135l-16.386,33.02 c-2.101,4.234-1.353,7.039-0.356,8.646c1.188,1.916,3.247,3.015,5.648,3.015c1.547,0,3.188-0.441,5.02-1.351l33.019-16.386 c4.431-2.198,10.64-6.659,14.136-10.156l53.261-53.261c3.846,3.463,7.69,6.715,11.437,9.722c28.215,22.646,60.94,39.69,68.392,39.69 c5.653,0,38.624-17.149,67.083-39.669c4.175-3.303,8.469-6.894,12.754-10.735l54.253,54.253c3.495,3.496,9.704,7.957,14.135,10.156 l33.02,16.386c1.831,0.909,3.474,1.351,5.02,1.351c2.401,0,4.46-1.099,5.648-3.015c0.997-1.607,1.744-4.413-0.357-8.646 l-16.386-33.02c-2.198-4.43-6.659-10.639-10.156-14.135l-55.772-55.772c11.344-16.162,19.259-34.413,19.259-53.909V159.403 l41.028-41.028l5.134,5.134c-2.704,11.332-2.219,24.518,1.838,28.574c6.542,6.543,15.241,10.146,24.494,10.146 c9.252,0,17.951-3.604,24.492-10.146C473.609,138.578,473.61,116.602,460.104,103.095z"/></symbol><symbol id="shield-4" viewBox="0 0 45.944 45.943"><title>shield-4</title><path d="M43.574,6.327L23.629,0.099C23.415,0.032,23.193,0,22.971,0s-0.443,0.032-0.658,0.099L2.369,6.327 c-0.938,0.294-1.567,1.168-1.548,2.15C1.312,34.409,13.329,41.51,21.999,45.68c0.117,0.055,0.538,0.264,0.956,0.264 c0.43,0,0.856-0.207,0.976-0.264c8.669-4.17,20.7-11.271,21.191-37.204C45.141,7.495,44.511,6.621,43.574,6.327z M33.434,32.04 l-1.079,1.079c-0.438,0.438-1.147,0.438-1.584,0l-2.931-2.932l-1.175,1.174c-0.146,0.146-0.343,0.228-0.55,0.228 c-0.206,0-0.405-0.082-0.55-0.228l-0.428-0.428c-0.305-0.305-0.305-0.797,0-1.101l0.962-0.961l-3.129-2.597l-3.143,2.597 l0.969,0.961c0.304,0.304,0.308,0.796,0.003,1.101l-0.426,0.428c-0.146,0.146-0.343,0.228-0.549,0.228 c-0.207,0-0.403-0.082-0.55-0.228l-1.173-1.174l-2.932,2.932c-0.437,0.438-1.147,0.438-1.584,0l-1.079-1.079 c-0.21-0.209-0.328-0.495-0.328-0.792s0.118-0.582,0.328-0.792l2.932-2.933l-1.174-1.174c-0.304-0.303-0.304-0.795,0-1.099 l0.428-0.429c0.304-0.303,0.796-0.303,1.1,0l1.221,1.221l2.441-2.943l-6.211-5.154c-0.267-0.222-0.442-0.535-0.491-0.879 l-0.515-3.613c-0.062-0.436,0.084-0.875,0.396-1.186s0.751-0.457,1.187-0.395l3.625,0.522c0.343,0.049,0.641,0.224,0.862,0.491 l4.655,5.602l4.656-5.602c0.222-0.267,0.533-0.442,0.876-0.491l3.625-0.522c0.437-0.063,0.875,0.083,1.188,0.395 c0.312,0.312,0.458,0.75,0.396,1.186l-0.515,3.613c-0.049,0.344-0.224,0.657-0.491,0.879l-6.21,5.154l2.441,2.943l1.221-1.221 c0.303-0.303,0.796-0.303,1.1,0l0.429,0.429c0.303,0.304,0.303,0.796,0,1.099l-1.174,1.174l2.931,2.933 c0.21,0.21,0.329,0.495,0.329,0.792S33.644,31.831,33.434,32.04z"/></symbol><symbol id="shield-3" viewBox="0 0 32.018 32.017"><title>shield-3</title><path d="M2.852,17.546c0,0,0.386-1.193-0.551-2.315c-0.937-1.125-2.207-1.221-2.207-1.221s-0.415,1.407,0.498,2.501 C1.506,17.609,2.852,17.546,2.852,17.546z"/><path d="M6.639,15.531c0.314-1.391-0.695-2.453-0.695-2.453s-1.086,0.664-1.41,2.091c-0.322,1.427,0.564,2.313,0.564,2.313 S6.325,16.921,6.639,15.531z"/><path d="M6.628,21.15c0,0,1.144-0.717,1.274-2.136c0.129-1.421-1.012-2.343-1.012-2.343S5.9,17.47,5.767,18.927 C5.634,20.384,6.628,21.15,6.628,21.15z"/><path d="M10.213,21.134c-0.005-1.426-1.227-2.236-1.227-2.236s-0.911,0.889-0.908,2.354c0.005,1.463,1.066,2.129,1.066,2.129 S10.216,22.56,10.213,21.134z"/><path d="M12.363,25.38c0,0,0.791-1.092,0.377-2.457c-0.415-1.365-1.818-1.789-1.818-1.789s-0.617,1.115-0.193,2.516 C11.155,25.048,12.363,25.38,12.363,25.38z"/><path d="M3.561,14.469c0,0,0.984-0.776,0.828-2.231c-0.156-1.456-1.16-2.24-1.16-2.24s-1.124,0.939-0.973,2.358 C2.408,13.775,3.561,14.469,3.561,14.469z"/><path d="M3.881,20.386c0,0,0.016-1.252-1.211-2.051s-2.468-0.514-2.468-0.514s0.017,1.465,1.213,2.243 C2.61,20.843,3.881,20.386,3.881,20.386z"/><path d="M5.862,22.964c0,0-0.264-1.227-1.636-1.73c-1.373-0.507-2.521,0.045-2.521,0.045s0.343,1.426,1.681,1.919 C4.725,23.69,5.862,22.964,5.862,22.964z"/><path d="M8.145,24.861c0,0-0.62-1.09-2.082-1.154c-1.462-0.066-2.39,0.806-2.39,0.806s0.76,1.256,2.185,1.321 C7.283,25.897,8.145,24.861,8.145,24.861z"/><path d="M9.124,25.638c-1.458,0.107-2.274,1.088-2.274,1.088s0.904,1.154,2.325,1.049c1.423-0.105,2.155-1.24,2.155-1.24 S10.584,25.529,9.124,25.638z"/><path d="M3.988,15.216L3.293,15.14c-0.008,0.075-0.707,7.609,10.442,11.803l0.245-0.652C3.366,22.296,3.956,15.503,3.988,15.216z"/><path d="M16,20.882c0.004-0.002,0.011-0.004,0.015-0.006c0.001,0,0.002,0,0.003,0v-0.002c0.841-0.326,7.821-3.388,5.139-13.893 c-0.804-0.105-1.39-1.271-1.39-1.271h-3.75V5.707H12.25c0,0-0.586,1.166-1.389,1.271C8.179,17.483,15.159,20.544,16,20.871V20.882 z"/><path d="M22.506,6.045L22.43,5.749L22.127,5.71c-0.578-0.075-1.138-0.933-1.288-1.227l-0.126-0.246h-4.695V4.232h-4.713 l-0.126,0.246c-0.15,0.294-0.71,1.152-1.288,1.227L9.588,5.744L9.512,6.04c-3.453,13.292,6.349,16.59,6.449,16.622L16,22.673 v0.012l0.017-0.005h0.001v-0.001l0.039-0.012C16.156,22.636,25.959,19.335,22.506,6.045z M10.32,6.527 c0.742-0.25,1.279-0.992,1.523-1.392h4.156V5.14h4.174c0.244,0.399,0.781,1.142,1.522,1.392 c2.776,11.159-4.281,14.62-5.682,15.187C14.64,21.166,7.537,17.714,10.32,6.527z"/><path d="M29.166,17.552c0,0,1.346,0.062,2.26-1.036c0.913-1.094,0.498-2.501,0.498-2.501s-1.271,0.096-2.207,1.221 C28.779,16.358,29.166,17.552,29.166,17.552z"/><path d="M26.92,17.486c0,0,0.887-0.886,0.563-2.313c-0.323-1.427-1.409-2.091-1.409-2.091s-1.011,1.063-0.695,2.453 C25.691,16.927,26.92,17.486,26.92,17.486z"/><path d="M25.39,21.155c0,0,0.994-0.765,0.86-2.223c-0.133-1.457-1.123-2.255-1.123-2.255s-1.142,0.921-1.012,2.342 C24.246,20.438,25.39,21.155,25.39,21.155z"/><path d="M21.805,21.14c-0.003,1.425,1.068,2.244,1.068,2.244s1.062-0.666,1.065-2.129c0.003-1.465-0.907-2.354-0.907-2.354 S21.81,19.714,21.805,21.14z"/><path d="M19.276,22.927c-0.414,1.365,0.377,2.459,0.377,2.459s1.208-0.334,1.636-1.731c0.424-1.399-0.193-2.516-0.193-2.516 S19.691,21.563,19.276,22.927z"/><path d="M28.457,14.474c0,0,1.151-0.694,1.305-2.113c0.15-1.419-0.974-2.358-0.974-2.358s-1.004,0.784-1.159,2.24 C27.473,13.698,28.457,14.474,28.457,14.474z"/><path d="M29.348,18.339c-1.227,0.8-1.211,2.052-1.211,2.052s1.271,0.457,2.466-0.321c1.196-0.777,1.213-2.243,1.213-2.243 S30.574,17.542,29.348,18.339z"/><path d="M27.791,21.239c-1.372,0.505-1.637,1.729-1.637,1.729s1.139,0.727,2.477,0.233s1.681-1.919,1.681-1.919 S29.164,20.732,27.791,21.239z"/><path d="M23.872,24.866c0,0,0.861,1.036,2.287,0.974c1.425-0.066,2.185-1.322,2.185-1.322s-0.928-0.872-2.39-0.807 S23.872,24.866,23.872,24.866z"/><path d="M22.894,25.643c-1.46-0.109-2.206,0.896-2.206,0.896s0.732,1.135,2.155,1.24c1.421,0.105,2.325-1.049,2.325-1.049 S24.352,25.751,22.894,25.643z"/><path d="M28.725,15.145l-0.695,0.076c0.032,0.287,0.622,7.081-9.991,11.073l0.245,0.652C29.432,22.753,28.731,15.22,28.725,15.145 z"/></symbol><symbol id="shield-2" viewBox="0 0 45.4 45.4"><title>shield-2</title><path d="M23.383,0.104c-0.445-0.139-0.922-0.139-1.367,0L2.391,6.232C1.417,6.537,0.763,7.446,0.784,8.467 c0.51,25.546,12.355,32.583,20.921,36.707c0.629,0.303,1.361,0.303,1.99,0c8.566-4.123,20.412-11.16,20.92-36.706 c0.021-1.019-0.635-1.931-1.607-2.234L23.383,0.104z M31.23,21.648c0,0.932-0.755,1.687-1.687,1.687h-4.211v4.13 c0,0.93-0.754,1.686-1.687,1.686h-1.958c-0.931,0-1.687-0.754-1.687-1.686v-4.13h-4.129c-0.932,0-1.687-0.755-1.687-1.687v-2.039 c0-0.931,0.755-1.687,1.687-1.687h4.129v-4.13c0-0.931,0.755-1.687,1.687-1.687h1.958c0.933,0,1.687,0.755,1.687,1.687v4.13h4.211 c0.931,0,1.687,0.755,1.687,1.687V21.648z"/></symbol><symbol id="shield-1" viewBox="0 0 452.022 452.022"><title>shield-1</title><path d="M440.761,380.351l-50.512-50.512l24.481-24.481c3.905-3.905,3.905-10.237,0-14.143c-3.905-3.904-10.237-3.904-14.143,0 l-9.494,9.494l-42.368-42.368c6.562-23.401,9.894-47.59,9.894-72l-0.001-153.69c0-4.777-3.379-8.887-8.065-9.811 c-113.629-22.402-228.859-22.402-342.488,0C3.379,23.764,0,27.875,0,32.652v153.69c0,55.105,16.721,108.08,48.356,153.2 c31.635,45.119,75.739,78.897,127.545,97.681c1.101,0.399,2.255,0.599,3.409,0.599c1.154,0,2.308-0.2,3.41-0.599 c40.392-14.651,76.722-38.923,105.694-70.5l18.334,18.334l-9.494,9.494c-3.905,3.905-3.905,10.237,0,14.143 c1.953,1.953,4.512,2.929,7.071,2.929c2.559,0,5.119-0.977,7.071-2.929l24.481-24.481l50.512,50.512 c7.262,7.261,16.917,11.26,27.187,11.26s19.924-3.999,27.186-11.26c7.262-7.262,11.261-16.917,11.261-27.186 C452.022,397.268,448.023,387.613,440.761,380.351z M359.946,331.858l-3.954,3.954L162.901,142.72l45.434,3.515l168.616,168.617 L359.946,331.858z M303.621,186.342c0,8.507-0.522,16.987-1.523,25.371l-82.234-82.234c-1.687-1.687-3.921-2.715-6.3-2.899 l-76.09-5.886c-2.916-0.229-5.777,0.833-7.842,2.899c-2.065,2.065-3.124,4.93-2.899,7.842l5.886,76.09 c0.184,2.379,1.212,4.613,2.899,6.3L249.48,327.788c-19.637,21.998-43.181,39.294-70.167,51.487 c-34.45-15.596-64.093-40.179-85.924-71.304C68.275,272.143,55,230.084,55,186.342l0-110.473c82.527-15.788,166.093-15.788,248.62,0 V186.342z M179.309,417.156c-46.45-17.606-86.009-48.352-114.577-89.097C35.468,286.322,20,237.317,20,186.342l0-145.43 c105.764-19.83,212.856-19.83,318.62,0v145.43c0,18.764-2.131,37.386-6.331,55.563l-12.648-12.648 c2.637-14.044,3.979-28.452,3.979-42.915l-0.001-118.69c0-4.753-3.346-8.849-8.003-9.798c-90.445-18.438-182.167-18.438-272.614,0 C38.345,58.802,35,62.899,35,67.652v118.69c0,47.872,14.527,93.9,42.013,133.112c24.797,35.354,58.809,62.997,98.359,79.939 c1.257,0.539,2.597,0.808,3.938,0.808c1.34,0,2.68-0.269,3.937-0.808c31.01-13.282,57.997-32.593,80.394-57.444l10.618,10.618 C248.179,381.194,215.58,403.39,179.309,417.156z M152.273,202.297l-3.514-45.434l193.091,193.091l-20.96,20.959L152.273,202.297z M376.107,343.981l6.336,6.336l-15.345,36.829l-17.078-17.078L376.107,343.981z M382.392,402.44l15.345-36.829l11.178,11.178 l-15.345,36.829L382.392,402.44z M426.619,420.58L426.619,420.58c-3.483,3.484-8.116,5.403-13.043,5.403 c-1.141,0-2.262-0.114-3.361-0.315l13.994-33.585l2.41,2.41c3.484,3.484,5.403,8.116,5.403,13.043S430.103,417.096,426.619,420.58z"/></symbol><symbol id="shield" viewBox="0 0 496.777 496.778"><title>shield</title><path d="M496.777,496.521l-13.203-37.185L368.676,344.437c8.672-14.763,16.213-30.779,22.539-47.992 c16.408-44.655,24.729-97.457,24.729-156.938v-15.304h-15.305c-1.102,0-2.186-0.023-3.273-0.041l34.902-34.904 c1.172,0.896,2.297,1.878,3.367,2.951c10.375,10.372,12.498,25.867,6.387,38.347c12.354,5.694,27.467,3.454,37.648-6.727 c10.18-10.183,12.42-25.292,6.725-37.646c-12.479,6.111-27.973,3.987-38.346-6.388c-1.07-1.072-2.053-2.195-2.949-3.366 l27.252-27.255c7.689,5.341,21.105,0.592,23.48-1.784c3.674-3.674-3.691-16.99-16.445-29.741 c-12.754-12.757-26.07-20.12-29.742-16.448c-2.375,2.378-7.125,15.792-1.785,23.482l-27.252,27.251 c-1.172-0.896-2.299-1.878-3.371-2.947c-10.373-10.376-12.496-25.867-6.385-38.348c-12.352-5.694-27.467-3.455-37.645,6.726 c-10.182,10.183-12.422,25.294-6.727,37.647c12.479-6.112,27.971-3.988,38.344,6.384c1.072,1.071,2.057,2.2,2.949,3.37 l-53.596,53.594c-72.855-19.024-105.792-78.036-105.792-78.036s-32.188,59.185-105.703,78.121L89.004,64.766 c0.894-1.17,1.877-2.299,2.949-3.37c10.373-10.372,25.864-12.496,38.344-6.384c5.696-12.354,3.456-27.465-6.726-37.647 c-10.178-10.181-25.293-12.42-37.646-6.726c6.113,12.48,3.989,27.972-6.385,38.348c-1.071,1.069-2.198,2.052-3.37,2.947 L48.919,24.683c5.338-7.69,0.59-21.104-1.786-23.482C43.46-2.471,30.146,4.892,17.391,17.648 C4.636,30.399-2.727,43.716,0.945,47.39c2.377,2.376,15.793,7.125,23.481,1.784l27.252,27.255 c-0.896,1.171-1.879,2.294-2.949,3.366C38.355,90.17,22.863,92.294,10.383,86.183c-5.696,12.354-3.455,27.464,6.726,37.646 c10.181,10.181,25.294,12.421,37.647,6.727c-6.111-12.479-3.988-27.975,6.387-38.347c1.07-1.073,2.195-2.056,3.367-2.951 l34.904,34.904c-1.089,0.018-2.174,0.041-3.275,0.041H80.835v15.304c0,59.48,8.319,112.282,24.728,156.938 c6.325,17.213,13.865,33.229,22.538,47.992L13.203,459.336L0,496.521l37.696-12.688l110.278-110.278 c4.201,5.304,8.583,10.388,13.152,15.233c40.774,43.255,82.084,53.161,83.823,53.563l3.437,0.79l3.437-0.79 c1.737-0.402,43.051-10.31,83.825-53.563c4.568-4.849,8.951-9.934,13.152-15.233L459.08,483.833L496.777,496.521z M313.377,367.792 c-27.588,29.264-55.354,40.464-64.99,43.682c-9.636-3.218-37.401-14.418-64.987-43.682c-20.673-21.931-37.195-49.487-49.106-81.903 c-13.81-37.584-21.419-81.79-22.666-131.589c66.949-4.482,111.436-37.471,136.926-64.252 c25.653,26.715,70.26,59.717,136.598,64.241c-1.248,49.8-8.855,94.014-22.668,131.599 C350.572,318.304,334.051,345.86,313.377,367.792z"/></symbol><symbol id="clipboard-with-pencil" viewBox="0 0 44.688 44.688"><title>clipboard-with-pencil</title><path d="M25.013,39.119c-0.336,0.475-0.828,0.82-1.389,0.975l-2.79,0.762c-0.219,0.062-0.445,0.094-0.673,0.094 c-0.514,0-1.011-0.157-1.43-0.452c-0.615-0.428-1.001-1.103-1.062-1.834l-0.245-2.881c-0.058-0.591,0.101-1.183,0.437-1.659 l0.103-0.148H8.012c-0.803,0-1.454-0.662-1.454-1.463c0-0.804,0.651-1.466,1.454-1.466h12.046l2.692-3.845H8.012 c-0.803,0-1.454-0.662-1.454-1.465s0.651-1.465,1.454-1.465l16.811-0.043l6.304-9.039V8.497c0-1.1-0.851-1.988-1.948-1.988h-4.826 v3.819c0,1.803-1.474,3.229-3.274,3.229h-9.706c-1.804,0-3.227-1.427-3.227-3.229V6.509H3.268c-1.099,0-1.988,0.889-1.988,1.988 V42.65c0,1.1,0.89,2.037,1.988,2.037h25.909c1.1,0,1.949-0.938,1.949-2.037V30.438L25.013,39.119z M8.012,17.496h16.424 c0.801,0,1.453,0.661,1.453,1.464c0,0.803-0.652,1.465-1.453,1.465H8.012c-0.803,0-1.454-0.662-1.454-1.465 C6.558,18.157,7.209,17.496,8.012,17.496z"/><path d="M11.4,11.636h9.697c0.734,0,1.331-0.596,1.331-1.332V4.727c0-0.736-0.597-1.332-1.331-1.332h-1.461 C19.626,1.52,18.102,0,16.223,0c-1.88,0-3.402,1.519-3.413,3.395H11.4c-0.736,0-1.331,0.596-1.331,1.332v5.576 C10.069,11.039,10.664,11.636,11.4,11.636z M16.224,1.891c0.835,0,1.512,0.672,1.521,1.505H14.7 C14.71,2.563,15.388,1.891,16.224,1.891z"/><path d="M43.394,8.978c-0.045-0.248-0.186-0.465-0.392-0.609l-2.428-1.692c-0.164-0.115-0.353-0.17-0.539-0.17 c-0.296,0-0.591,0.14-0.772,0.403L22.064,31.573l3.973,2.771L43.238,9.682C43.38,9.477,43.437,9.224,43.394,8.978z"/><path d="M19.355,35.6l0.249,2.896c0.012,0.167,0.101,0.316,0.236,0.412c0.096,0.066,0.209,0.104,0.321,0.104 c0.049,0,0.099-0.007,0.147-0.021l2.805-0.768c0.127-0.035,0.237-0.113,0.313-0.22l1.053-1.51l-3.976-2.772l-1.053,1.51 C19.376,35.338,19.341,35.469,19.355,35.6z"/></symbol><symbol id="note" viewBox="0 0 511.998 511.998"><title>note</title><g> <g> <path d="M389.688,30.963h-72.885v14.771h72.885c5.591,0.001,10.14,4.549,10.14,10.141c0,1.626-0.374,3.178-1.112,4.612 l13.135,6.755c1.797-3.494,2.747-7.425,2.747-11.367C414.599,42.138,403.424,30.963,389.688,30.963z"/> </g> </g><g> <g> <rect x="277.145" y="30.964" width="18.351" height="14.771"/> </g> </g><g> <g> <rect x="91.695" y="163.135" width="260.956" height="14.771"/> </g> </g><g> <g> <rect x="91.695" y="432.382" width="260.956" height="14.771"/> </g> </g><g> <g> <polygon points="439.419,167.922 428.974,178.366 438.158,187.551 407.829,217.88 418.273,228.325 459.047,187.551 "/> </g> </g><g> <g> <rect x="391.939" y="229.886" transform="matrix(0.7071 -0.7071 0.7071 0.7071 -50.9428 351.556)" width="13.914" height="14.77"/> </g> </g><g> <g> <path d="M500.074,124.633l-5.464-5.464c-15.873-15.874-41.704-15.874-57.578,0l-5.341,5.341l-10.445,10.444l-27.072,27.072 v-56.217c25.554-2.279,45.658-23.797,45.658-49.934c0-27.65-22.496-50.146-50.145-50.146H50.145C22.496,5.729,0,28.224,0,55.874 v399.255h42.76v51.141h351.416v-218.16l90.113-90.113l7.892-7.893l2.551-2.551l5.341-5.341c7.69-7.69,11.925-17.913,11.925-28.788 S507.765,132.322,500.074,124.633z M85.65,20.5h304.038c19.506,0,35.374,15.869,35.374,35.375s-15.869,35.374-35.374,35.374H85.65 c9.042-9.075,14.641-21.583,14.641-35.374C100.291,42.082,94.693,29.575,85.65,20.5z M42.76,91.248L42.76,91.248v349.11H14.771 V55.874c0-19.506,15.87-35.375,35.375-35.375c19.505,0,35.374,15.87,35.374,35.375c0,19.506-15.87,35.374-35.374,35.374H42.76z M379.406,491.499L379.406,491.499H57.53V106.02h321.875v70.776l-32.022,32.021H91.692v14.771h240.922l-30.915,30.915H91.692 v14.771h195.237l-30.914,30.914H91.692v14.771h149.553l-2.577,2.577l-8.401,28.338H91.692v14.771h134.197l-9.165,30.915H91.692 v14.771h260.953v-14.771h-87.977l37.042-10.98l19.933-19.933h31.001v-14.771h-16.23l42.992-42.992V491.499z M248.768,335.428 l35.047,35.047l-49.813,14.767L248.768,335.428z M297.812,363.584l-42.153-42.153l176.032-176.032l42.153,42.153L297.812,363.584z M489.631,171.766l-5.341,5.341l-42.153-42.153l5.341-5.341c10.115-10.115,26.573-10.115,36.689,0l5.464,5.464 c4.9,4.9,7.599,11.415,7.599,18.344C497.229,160.351,494.53,166.866,489.631,171.766z"/> </g> </g></symbol><symbol id="greek-1" viewBox="0 0 295.771 295.771"><title>greek-1</title><path d="m257.764,224.086c-0.888-4.686-3.166-8.996-6.538-12.368l-26.112-26.112c2.88,22.33 9.967,56.375 14.155,75.647l20.943,3.967c1.249,0.237 2.535-0.16 3.434-1.059 0.899-0.899 1.296-2.185 1.059-3.434l-6.941-36.641z"/><path d="m79.188,119.725l12.324,12.324c4.522-5.186 9.638-9.59 16.036-13.38l-13.652-13.652-14.708,14.708z"/><path d="m48.13,129.57l80.926-80.926c5.2-5.2 5.2-13.631 0-18.83l-7.723-7.722c-6.514-6.514-17.558-4.607-21.477,3.777l-15.917,34.048c-13.684-13.683-10.738-10.738-24.622-24.622 1.525-9.186-1.247-18.946-8.334-26.033-11.663-11.663-30.573-11.663-42.236,0-11.663,11.663-11.663,30.572 0,42.236 7.086,7.086 16.847,9.859 26.032,8.334 13.886,13.884 10.939,10.938 24.623,24.622l-34.049,15.916c-8.369,3.912-10.294,14.96-3.777,21.478l7.722,7.722c5.201,5.2 13.632,5.2 18.832-2.84217e-14z"/><path d="m44.546,211.717c-3.373,3.372-5.651,7.682-6.539,12.368l-6.94,36.641c-0.237,1.249 0.16,2.535 1.059,3.434 0.899,0.899 2.184,1.295 3.434,1.059l20.943-3.967c4.188-19.272 11.276-53.317 14.155-75.647l-26.112,26.112z"/><path d="m204.26,132.049l12.324-12.324-14.708-14.708-13.652,13.652c6.39,3.786 11.508,8.188 16.036,13.38z"/><path d="m147.886,108.378l-28.675-28.675-14.708,14.707 17.768,17.768c7.738-2.38 16.223-3.589 25.42-3.606 0.066,0 0.129-0.004 0.195-0.004 9.273,0 17.822,1.212 25.615,3.61l17.768-17.768-14.708-14.708-28.675,28.676z"/><path d="m260.992,59.832c9.186,1.525 18.946-1.248 26.033-8.334 11.663-11.663 11.663-30.573 0-42.236s-30.572-11.663-42.235,0c-7.086,7.086-9.859,16.847-8.334,26.032-13.883,13.883-10.894,10.894-24.623,24.623l-15.916-34.049c-3.924-8.395-14.971-10.283-21.477-3.777l-7.722,7.722c-5.2,5.2-5.2,13.63 0,18.83l80.926,80.926c5.2,5.2 13.63,5.2 18.83,0l7.723-7.722c6.519-6.52 4.59-17.566-3.777-21.478l-34.049-15.916c13.682-13.683 10.736-10.737 24.621-24.621z"/><path d="m147.886,123.569c-34.308,0-56.898,19.425-62.119,62.119-3.287,26.878-12.937,71.378-16.525,87.49-0.767,3.442 1.19,6.912 4.535,8.028l41.063,13.696c2.027,0.676 4.252,0.373 6.025-0.82 1.772-1.193 2.891-3.141 3.027-5.273l3.507-54.728c0.18-2.803-1.361-5.434-3.893-6.649l-19.598-9.406c-6.607-3.171-9.393-11.097-6.222-17.704 3.169-6.603 11.098-9.392 17.704-6.222l29.517,14.166c1.884,0.904 4.076,0.904 5.96,0l29.516-14.166c6.603-3.169 14.534-0.385 17.704,6.222 3.171,6.607 0.385,14.534-6.222,17.704l-19.598,9.406c-2.532,1.215-4.073,3.846-3.893,6.649l3.507,54.728c0.137,2.132 1.255,4.08 3.027,5.273 1.772,1.193 3.998,1.496 6.025,0.82l41.063-13.696c3.352-1.118 5.303-4.579 4.535-8.028-3.588-16.113-13.238-60.612-16.525-87.49-5.222-42.694-27.813-62.119-62.12-62.119z"/></symbol><symbol id="medieval" viewBox="0 0 512.002 512.002"><title>medieval</title><path d="M317.876,43.648c-4.489-1.434-9.284,1.067-10.709,5.564c-1.425,4.489,1.067,9.284,5.555,10.709 c78.362,24.806,131.012,96.742,131.012,179.012v254.993c-20.804-2.202-73.267-7.031-135.595-7.492l15.565-147.84l72.294-32.128 c2.739-1.212,4.634-3.772,5.001-6.741l8.533-68.267c0.341-2.714-0.649-5.436-2.645-7.296c-2.005-1.877-4.77-2.645-7.475-2.133 c-0.725,0.145-73.062,14.336-126.754,16.913c-2.278,0.111-4.42,1.135-5.948,2.833c-1.527,1.698-2.304,3.942-2.159,6.229 l8.388,134.229L259.261,409.6h-6.519l-13.679-27.366l8.388-134.229c0.145-2.287-0.631-4.531-2.159-6.229 s-3.669-2.722-5.948-2.833c-53.666-2.577-126.029-16.768-126.754-16.913c-2.688-0.521-5.47,0.256-7.475,2.133 c-2.005,1.86-2.987,4.582-2.645,7.296l8.533,68.267c0.367,2.97,2.261,5.53,5.001,6.741l72.294,32.128l15.565,147.84 c-62.327,0.461-114.79,5.291-135.595,7.492V238.933c0-82.833,53.12-154.931,132.19-179.379c4.506-1.399,7.023-6.178,5.632-10.675 c-1.399-4.506-6.212-7.031-10.675-5.632C109.151,69.922,51.201,148.565,51.201,238.933v264.533c0,2.449,1.05,4.779,2.884,6.4 c1.57,1.382,3.584,2.133,5.649,2.133c0.35,0,0.708-0.017,1.058-0.068c0.683-0.085,68.71-8.465,152.542-8.465 c2.415,0,4.727-1.024,6.34-2.825c1.621-1.801,2.398-4.198,2.15-6.605l-1.707-16.171h48.683c4.71,0,8.533-3.823,8.533-8.533 s-3.823-8.533-8.533-8.533h-50.483l-13.559-128.888c-0.324-3.038-2.236-5.675-5.026-6.912l-72.397-32.179l-6.485-51.874 c21.368,3.891,68.318,11.844,109.039,14.541l-8.004,127.974c-0.094,1.51,0.213,3.012,0.879,4.352l17.067,34.133 c1.451,2.893,4.403,4.719,7.637,4.719h17.067c3.234,0,6.187-1.826,7.637-4.719l17.067-34.133c0.666-1.34,0.973-2.842,0.879-4.352 l-8.004-127.974c40.713-2.697,87.671-10.65,109.039-14.541l-6.485,51.874l-72.397,32.179c-2.79,1.237-4.702,3.874-5.026,6.912 l-17.067,162.125c-0.247,2.406,0.529,4.804,2.15,6.605c1.613,1.801,3.925,2.825,6.34,2.825c83.763,0,151.859,8.38,152.542,8.465 c2.458,0.316,4.872-0.444,6.707-2.065s2.884-3.951,2.884-6.4V238.933C460.801,149.188,403.363,70.707,317.876,43.648z"/><path d="M230.401,110.933c0,4.71,3.823,8.533,8.533,8.533h34.133c4.71,0,8.533-3.823,8.533-8.533 c0-32.444,19.576-96.35,19.772-96.99c0.725-2.364,0.393-4.932-0.922-7.031c-1.306-2.099-3.465-3.533-5.914-3.908 c-12.723-1.988-25.6-2.987-38.477-2.995c-0.017,0-0.043-0.009-0.06-0.009s-0.043,0.009-0.06,0.009 c-12.877,0.009-25.754,1.007-38.477,2.995c-2.449,0.375-4.608,1.809-5.922,3.908c-1.306,2.099-1.638,4.668-0.913,7.031 C210.826,14.583,230.401,78.49,230.401,110.933z M247.468,17.314v25.353c0,4.71,3.823,8.533,8.533,8.533s8.533-3.823,8.533-8.533 V17.314c5.897,0.213,11.802,0.572,17.681,1.246c-5.094,17.809-15.386,56.363-17.348,83.84h-17.732 c-1.971-27.477-12.254-66.031-17.348-83.84C235.666,17.886,241.571,17.527,247.468,17.314z"/></symbol><symbol id="fashion" viewBox="0 0 44.999 44.999"><title>fashion</title><path d="M41.611,4.93C37.418,1.707,32.397,0,27.097,0C13.966,0,3.28,10.684,3.28,23.818c0,2.972,0.544,5.875,1.616,8.631 c0.087,0.229,0.265,0.187,0.358,0.156c0.233-0.073,9.577-3.727,9.577-3.727c0.141-0.054,0.214-0.214,0.157-0.357 c-0.58-1.494-0.876-3.078-0.877-4.705c0-7.16,5.825-12.984,12.985-12.984c2.893,0,5.626,0.927,7.907,2.684 c0.062,0.045,0.134,0.066,0.207,0.057c0.072-0.011,0.141-0.047,0.186-0.106l6.265-8.146c0.045-0.056,0.064-0.132,0.057-0.204 C41.708,5.041,41.668,4.975,41.611,4.93z"/><path d="M24.682,12.367c-0.066-0.061-0.159-0.084-0.247-0.064c-2.575,0.596-4.908,2.065-6.569,4.138 c-0.061,0.077-0.075,0.176-0.045,0.266c0.034,0.09,0.109,0.161,0.203,0.178c0.833,0.183,1.668,0.557,2.485,1.112 c0.05,0.034,0.103,0.048,0.156,0.048c0.065,0,0.13-0.022,0.184-0.067c1.148-0.995,2.45-1.778,3.875-2.324 c0.126-0.047,0.197-0.178,0.174-0.31c-0.184-0.979-0.225-1.9-0.125-2.737C24.784,12.518,24.749,12.428,24.682,12.367z"/><path d="M29.688,15.901c-6.447,0-11.694,4.732-11.694,10.552c0,2.589,0.573,5.127,1.575,6.967 c0.947,1.743-0.862,3.663-2.313,5.203c-0.993,1.054-1.778,1.887-1.617,2.574c0.069,0.301,0.306,0.528,0.703,0.68 c0.499,0.188,1.101,0.289,1.739,0.289c1.806,0,3.591-0.785,4.778-2.1c1.446-1.601,2.056-3.968,1.759-6.848 c-0.074-0.736,0.075-1.368,0.409-1.738c0.2-0.224,0.46-0.343,0.749-0.343c1.223,0,3.229,2.138,3.755,8.032 c0.347,3.869,3.854,5.829,10.425,5.829c0,0,0.528,0,0.629-0.309c0.145-0.443-0.395-0.936-1.777-2.11 c-1.319-1.122-3.313-2.817-3.209-3.806c0.023-0.236,0.181-0.432,0.479-0.593c1.021-0.56,1.601-1.188,1.709-1.885 c0.082-0.545-0.129-1.104-0.617-1.619c-0.306-0.319-1-0.783-1.877-1.373c-1.283-0.858-3.586-2.405-3.727-3.176h9.542 c0.073,0,0.142-0.027,0.196-0.079c0.051-0.054,0.079-0.124,0.079-0.196l-0.002-3.426C41.37,20.624,36.122,15.901,29.688,15.901z M24.979,28.792c-0.791,0-1.438-0.644-1.438-1.435s0.646-1.435,1.438-1.435s1.434,0.644,1.434,1.435S25.77,28.792,24.979,28.792z M37.807,28.506h-8.45c-0.665,0-1.207-0.514-1.207-1.147s0.542-1.147,1.207-1.147h8.45c0.665,0,1.204,0.515,1.204,1.147 C39.011,27.992,38.472,28.506,37.807,28.506z"/></symbol><symbol id="war" viewBox="0 0 307.164 307.164"><title>war</title><path d="m193.307,126.847c40.828-33.225 75.857-73.173 103.504-118.246 0.598-0.975 0.419-2.236-0.426-3.006-0.845-0.77-2.118-0.83-3.032-0.144-9.58,7.185-24.574,17.651-39.701,25.109-19.557,9.641-40.571,13.577-51.19,15.055-4.476,0.623-8.461,3.156-10.929,6.941-5.225,8.016-15.351,23.039-28.405,39.984 6.044,7.515 12.568,15.213 19.406,22.654 3.755,4.085 7.343,7.965 10.773,11.653z"/><path d="m115.393,147.168c-17.296,18.396-29.524,30.808-36.563,37.816l-3.183-3.183c-3.906-3.904-10.236-3.904-14.143,0-3.905,3.905-3.905,10.237 0,14.143l1.405,1.405c-3.597-0.354-7.317,0.844-10.071,3.598-3.232,3.232-4.311,7.791-3.263,11.921-4.131-1.048-8.69,0.031-11.922,3.262-3.232,3.232-4.311,7.792-3.263,11.922-4.13-1.047-8.69,0.031-11.921,3.262-2.991,2.991-4.14,7.119-3.466,10.992l-1.932-1.932c-3.906-3.904-10.236-3.904-14.143,0-3.905,3.905-3.905,10.237 0,14.143l42.193,42.192c1.608,1.607 3.716,2.619 5.977,2.868l23.146,2.55c0.372,0.041 0.741,0.061 1.107,0.061 5.031,0 9.363-3.789 9.927-8.906 0.605-5.489-3.354-10.43-8.845-11.034l-19.653-2.165-14.243-14.243c0.712,0.124 1.432,0.195 2.153,0.195 3.199,0 6.398-1.221 8.839-3.661 3.232-3.232 4.311-7.791 3.263-11.921 1.011,0.257 2.046,0.399 3.083,0.399 3.199,0 6.398-1.221 8.839-3.661 3.232-3.232 4.311-7.791 3.263-11.922 1.011,0.256 2.045,0.398 3.082,0.398 3.199,0 6.398-1.221 8.839-3.661 2.755-2.755 3.953-6.475 3.599-10.071l2.814,2.814 2.166,19.653c0.563,5.118 4.895,8.906 9.927,8.906 0.366,0 0.735-0.02 1.107-0.061 5.49-0.605 9.45-5.545 8.845-11.034l-2.55-23.145c-0.249-2.261-1.261-4.368-2.868-5.977l-5.84-5.84 41.007-41.007c-9.115-6.05-18.025-12.416-26.712-19.076z"/><path d="m304.235,240.375c-3.906-3.904-10.236-3.904-14.143,0l-1.932,1.932c0.674-3.873-0.475-8.001-3.466-10.992-3.232-3.232-7.79-4.31-11.921-3.262 1.048-4.131-0.03-8.691-3.262-11.922-3.232-3.232-7.79-4.31-11.92-3.263 1.047-4.13-0.031-8.689-3.263-11.921-1.167-1.167-2.512-2.048-3.943-2.657-1.946-0.828-4.057-1.146-6.13-0.941l1.406-1.406c3.905-3.905 3.905-10.237 0-14.143-3.906-3.904-10.236-3.904-14.143,0l-3.183,3.183c-9.534-9.492-28.572-28.879-56.844-59.64-25.939-28.223-47.365-59.759-55.859-72.788-2.468-3.786-6.453-6.319-10.929-6.942-10.619-1.478-31.633-5.414-51.19-15.055-15.128-7.456-30.122-17.923-39.702-25.107-0.425-0.319-0.927-0.476-1.428-0.476-0.577,0-1.152,0.209-1.604,0.621-0.845,0.77-1.024,2.031-0.426,3.006 36.374,59.301 85.515,109.744 143.847,147.654l2.486,1.615 49.381,49.381-5.84,5.84c-1.607,1.608-2.619,3.716-2.868,5.977l-.068,.62-2.481,22.526c-0.606,5.489 3.354,10.43 8.845,11.034 0.372,0.041 0.741,0.061 1.107,0.061 5.031,0 9.363-3.788 9.927-8.906l1.29-11.707 4.632-4.632c0.609,1.431 1.489,2.775 2.656,3.942 2.44,2.44 5.64,3.661 8.839,3.661 1.037,0 2.072-0.142 3.083-0.399-1.048,4.131 0.03,8.69 3.262,11.922 2.441,2.441 5.64,3.661 8.839,3.661 1.037,0 2.071-0.142 3.082-0.398-1.048,4.13 0.031,8.689 3.263,11.921 2.44,2.44 5.64,3.661 8.839,3.661 0.721,0 1.441-0.071 2.154-0.195l-14.243,14.243-19.653,2.165c-5.49,0.604-9.45,5.545-8.845,11.034 0.563,5.118 4.895,8.906 9.927,8.906 0.366,0 0.735-0.021 1.107-0.061l23.146-2.55c2.261-0.249 4.368-1.261 5.977-2.868l42.192-42.192c3.904-3.906 3.904-10.238-0.001-14.143z"/></symbol><symbol id="greek" viewBox="0 0 298.935 298.935"><title>greek</title><path d="m149.468,77.394c-44.435,0-73.694,25.159-80.457,80.457-4.127,33.746-15.998,88.94-20.955,111.298-1.243,5.607 1.945,11.256 7.394,13.073l48.379,16.136c3.303,1.102 6.93,0.608 9.819-1.336 2.889-1.944 4.711-5.119 4.934-8.594l4.251-66.347c0.293-4.568-2.218-8.856-6.345-10.837l-31.892-15.306c-4.189-2.01-5.955-7.035-3.944-11.224l7.592-15.82c0.965-2.012 2.69-3.557 4.795-4.297 2.105-0.74 4.418-0.613 6.429,0.353l32.174,15.442c3.892,1.868 6.367,5.802 6.367,10.119v41.797c0,0.839 0.262,1.658 0.75,2.341l7.43,10.401c0.756,1.059 1.977,1.687 3.278,1.687 1.301,0 2.521-0.628 3.278-1.687l7.43-10.401c0.488-0.683 0.75-1.502 0.75-2.341v-41.798c0-4.317 2.476-8.251 6.368-10.119l32.174-15.442c2.011-0.965 4.324-1.092 6.429-0.353 2.105,0.74 3.83,2.285 4.795,4.297l7.593,15.82c2.01,4.189 0.244,9.214-3.944,11.224l-31.892,15.306c-4.127,1.981-6.637,6.269-6.345,10.837l4.251,66.347c0.223,3.475 2.045,6.649 4.934,8.594 2.888,1.944 6.516,2.438 9.819,1.336l48.379-16.136c5.459-1.821 8.639-7.455 7.394-13.073-4.956-22.359-16.828-77.552-20.955-111.298-6.763-55.297-36.022-80.456-80.457-80.456z"/><path d="m259.957,43.655c-38.229-35.915-89.823-49.669-138.289-41.264-0.95,0.165-1.624,1.012-1.567,1.975l.875,14.836c0.01,0.168-0.107,0.318-0.273,0.348-0.166,0.031-0.328-0.067-0.379-0.228l-4.511-14.337c-0.277-0.881-1.151-1.432-2.066-1.305-5.355,0.742-8.924,1.306-14.283,3.693-0.785,0.35-1.235,1.186-1.097,2.034l4.069,24.987c0.066,0.404-0.132,0.805-0.493,0.998-0.361,0.193-0.804,0.136-1.104-0.143l-20.075-18.659c-0.573-0.533-1.416-0.658-2.119-0.315-14.207,6.92-27.602,16.047-39.666,27.38-0.976,0.917-1.54,2.19-1.562,3.53-0.021,1.34 0.501,2.63 1.449,3.578l34.041,34.041c1.87,1.87 4.881,1.935 6.834,0.152 39.382-35.976 100.072-35.976 139.454,0 1.955,1.786 4.962,1.721 6.834-0.152l34.041-34.041c0.947-0.947 1.468-2.239 1.447-3.578-0.021-1.34-0.584-2.613-1.56-3.53z"/></symbol></svg>